<?xml version="1.0" encoding="UTF-8"?>
<!DOCTYPE svg PUBLIC "-//W3C//DTD SVG 1.1//EN" "http://www.w3.org/Graphics/SVG/1.1/DTD/svg11.dtd">
<svg xmlns="http://www.w3.org/2000/svg" version="1.1" width="512px" height="512px" style="shape-rendering:geometricPrecision; text-rendering:geometricPrecision; image-rendering:optimizeQuality; fill-rule:evenodd; clip-rule:evenodd" xmlns:xlink="http://www.w3.org/1999/xlink">
<g><path style="opacity:0.949" fill="#000000" d="M -0.5,50.5 C 5.5,50.5 11.5,50.5 17.5,50.5C 17.5,73.1667 17.5,95.8333 17.5,118.5C 22.8333,118.5 28.1667,118.5 33.5,118.5C 33.5,95.8333 33.5,73.1667 33.5,50.5C 39.5,50.5 45.5,50.5 51.5,50.5C 51.5,73.1667 51.5,95.8333 51.5,118.5C 56.8333,118.5 62.1667,118.5 67.5,118.5C 67.5,95.8333 67.5,73.1667 67.5,50.5C 73.5,50.5 79.5,50.5 85.5,50.5C 85.6667,89.5014 85.5,128.501 85,167.5C 83.2877,178.927 77.9543,188.26 69,195.5C 68.6667,276.167 68.3333,356.833 68,437.5C 64.1956,454.995 53.3623,462.495 35.5,460C 26,457.167 19.8333,451 17,441.5C 16.8333,359.498 16.3333,277.498 15.5,195.5C 7.36896,188.892 2.03563,180.559 -0.5,170.5C -0.5,130.5 -0.5,90.5 -0.5,50.5 Z M 17.5,136.5 C 34.1667,136.5 50.8333,136.5 67.5,136.5C 67.6665,145.839 67.4998,155.173 67,164.5C 63.1807,180.651 53.014,187.817 36.5,186C 28.1595,183.659 22.3262,178.493 19,170.5C 17.5666,159.244 17.0666,147.91 17.5,136.5 Z M 34.5,204.5 C 39.8333,204.5 45.1667,204.5 50.5,204.5C 50.6667,281.501 50.5,358.501 50,435.5C 48.0346,442.354 43.8679,444.188 37.5,441C 36.2986,440.097 35.4652,438.931 35,437.5C 34.5,359.834 34.3333,282.167 34.5,204.5 Z"/></g>
<g><path style="opacity:0.947" fill="#000000" d="M 511.5,64.5 C 511.5,190.167 511.5,315.833 511.5,441.5C 502.957,460.295 489.29,465.128 470.5,456C 465.748,452.586 462.581,448.086 461,442.5C 459.691,385.531 459.024,328.531 459,271.5C 451.738,268.325 446.738,262.992 444,255.5C 442.861,233.707 442.361,211.874 442.5,190C 442.388,166.477 442.888,142.977 444,119.5C 447.874,92.9095 459.708,70.7428 479.5,53C 493.777,47.3872 504.444,51.2205 511.5,64.5 Z M 488.5,68.5 C 490.144,68.2865 491.644,68.6198 493,69.5C 493.5,131.499 493.667,193.499 493.5,255.5C 485.493,255.666 477.493,255.5 469.5,255C 464.498,254.921 461.665,252.421 461,247.5C 460.058,205.478 460.391,163.478 462,121.5C 465.544,101.08 474.377,83.4129 488.5,68.5 Z M 477.5,273.5 C 482.833,273.5 488.167,273.5 493.5,273.5C 493.667,328.501 493.5,383.501 493,438.5C 486.5,444.585 481.5,443.585 478,435.5C 477.5,381.501 477.333,327.501 477.5,273.5 Z"/></g>
<g><path style="opacity:0.936" fill="#000000" d="M 242.5,84.5 C 314.739,82.367 369.239,112.034 406,173.5C 433.333,228.167 433.333,282.833 406,337.5C 366.681,402.578 308.847,431.744 232.5,425C 162.443,412.936 115.61,373.436 92,306.5C 73.2179,234.088 91.3846,172.922 146.5,123C 174.694,100.658 206.694,87.8245 242.5,84.5 Z M 243.5,102.5 C 314.003,101.146 364.837,131.813 396,194.5C 417.782,251.353 410.449,304.02 374,352.5C 329.982,401.612 275.815,418.112 211.5,402C 160,385.167 125.833,351 109,299.5C 92.8862,235.188 109.386,181.022 158.5,137C 183.551,117.373 211.885,105.873 243.5,102.5 Z M 277.5,136.5 C 282.357,136.508 286.69,138.008 290.5,141C 297.167,147.667 303.833,154.333 310.5,161C 296.155,161.833 281.822,161.666 267.5,160.5C 262.08,148.747 265.413,140.747 277.5,136.5 Z M 176.5,170.5 C 189.907,170.056 203.24,170.556 216.5,172C 218.049,173.214 219.215,174.714 220,176.5C 220.606,182.815 222.273,188.815 225,194.5C 231.302,201.803 237.968,208.803 245,215.5C 245.333,216.5 245.667,217.5 246,218.5C 246.667,231.167 246.667,243.833 246,256.5C 245.167,260 243,262.167 239.5,263C 232.06,263.191 225.394,265.525 219.5,270C 210.47,279.364 201.137,288.364 191.5,297C 183.063,297.937 174.73,297.604 166.5,296C 165.333,294.833 164.167,293.667 163,292.5C 162.31,286.658 160.977,280.991 159,275.5C 153.032,268.531 146.699,261.864 140,255.5C 139,253.833 138,252.167 137,250.5C 136.333,236.833 136.333,223.167 137,209.5C 147.435,197.063 158.602,185.229 170.5,174C 172.432,172.541 174.432,171.375 176.5,170.5 Z M 286.5,180.5 C 300.661,179.339 314.994,179.173 329.5,180C 337.167,187.667 344.833,195.333 352.5,203C 338.167,203.667 323.833,203.667 309.5,203C 301.965,195.298 294.298,187.798 286.5,180.5 Z M 183.5,213.5 C 199.641,213.808 205.808,221.808 202,237.5C 193.373,248.544 184.04,249.21 174,239.5C 167.953,227.474 171.12,218.807 183.5,213.5 Z M 328.5,222.5 C 342.672,221.174 357.006,221.174 371.5,222.5C 377.227,237.216 372.227,245.049 356.5,246C 353.554,245.194 350.888,243.861 348.5,242C 341.965,235.297 335.298,228.797 328.5,222.5 Z M 306.5,268.5 C 312.131,273.63 317.631,278.964 323,284.5C 324.141,291.084 323.474,297.417 321,303.5C 313.649,305.366 306.482,307.866 299.5,311C 295.509,313.989 292.676,317.822 291,322.5C 290.125,327.633 288.792,332.633 287,337.5C 285.581,338.46 284.081,339.293 282.5,340C 264.585,341.583 255.085,351.416 254,369.5C 253.535,370.931 252.701,372.097 251.5,373C 245.585,374.527 239.585,374.861 233.5,374C 228.167,368.667 222.833,363.333 217.5,358C 232.067,353.744 239.567,343.911 240,328.5C 241.167,327.333 242.333,326.167 243.5,325C 256.125,324.95 265.291,319.45 271,308.5C 272.092,303.86 273.092,299.193 274,294.5C 275.167,293.333 276.333,292.167 277.5,291C 291.141,290.945 300.641,284.778 306,272.5C 306.49,271.207 306.657,269.873 306.5,268.5 Z"/></g>
<g><path style="opacity:0.937" fill="#000000" d="M 273.5,118.5 C 284.918,117.362 294.918,120.529 303.5,128C 331.695,155.861 359.528,184.028 387,212.5C 396.254,229.667 393.754,244.833 379.5,258C 366.741,266.256 353.741,266.589 340.5,259C 310.333,230.167 280.833,200.667 252,170.5C 240.764,145.345 247.931,128.011 273.5,118.5 Z M 277.5,136.5 C 265.413,140.747 262.08,148.747 267.5,160.5C 281.822,161.666 296.155,161.833 310.5,161C 303.833,154.333 297.167,147.667 290.5,141C 286.69,138.008 282.357,136.508 277.5,136.5 Z M 286.5,180.5 C 294.298,187.798 301.965,195.298 309.5,203C 323.833,203.667 338.167,203.667 352.5,203C 344.833,195.333 337.167,187.667 329.5,180C 314.994,179.173 300.661,179.339 286.5,180.5 Z M 328.5,222.5 C 335.298,228.797 341.965,235.297 348.5,242C 350.888,243.861 353.554,245.194 356.5,246C 372.227,245.049 377.227,237.216 371.5,222.5C 357.006,221.174 342.672,221.174 328.5,222.5 Z"/></g>
<g><path style="opacity:0.938" fill="#000000" d="M 173.5,152.5 C 187.504,152.333 201.504,152.5 215.5,153C 225.839,154.336 233.006,159.836 237,169.5C 237.966,174.934 239.299,180.268 241,185.5C 247,191.5 253,197.5 259,203.5C 261.434,206.795 263.101,210.462 264,214.5C 264.667,229.833 264.667,245.167 264,260.5C 261.665,268.693 256.831,274.86 249.5,279C 243.422,280.505 237.422,282.172 231.5,284C 223.167,292.333 214.833,300.667 206.5,309C 202.951,311.878 198.951,313.878 194.5,315C 184.5,315.667 174.5,315.667 164.5,315C 150.35,309.897 143.183,299.731 143,284.5C 136.698,277.197 130.032,270.197 123,263.5C 121.275,260.326 119.942,256.993 119,253.5C 118.333,237.833 118.333,222.167 119,206.5C 119.774,202.951 121.107,199.618 123,196.5C 134.47,184.029 146.304,171.862 158.5,160C 163.045,156.394 168.045,153.894 173.5,152.5 Z M 176.5,170.5 C 174.432,171.375 172.432,172.541 170.5,174C 158.602,185.229 147.435,197.063 137,209.5C 136.333,223.167 136.333,236.833 137,250.5C 138,252.167 139,253.833 140,255.5C 146.699,261.864 153.032,268.531 159,275.5C 160.977,280.991 162.31,286.658 163,292.5C 164.167,293.667 165.333,294.833 166.5,296C 174.73,297.604 183.063,297.937 191.5,297C 201.137,288.364 210.47,279.364 219.5,270C 225.394,265.525 232.06,263.191 239.5,263C 243,262.167 245.167,260 246,256.5C 246.667,243.833 246.667,231.167 246,218.5C 245.667,217.5 245.333,216.5 245,215.5C 237.968,208.803 231.302,201.803 225,194.5C 222.273,188.815 220.606,182.815 220,176.5C 219.215,174.714 218.049,173.214 216.5,172C 203.24,170.556 189.907,170.056 176.5,170.5 Z M 183.5,213.5 C 171.12,218.807 167.953,227.474 174,239.5C 184.04,249.21 193.373,248.544 202,237.5C 205.808,221.808 199.641,213.808 183.5,213.5 Z"/></g>
<g><path style="opacity:0.936" fill="#000000" d="M 179.5,195.5 C 208.642,194.475 222.476,208.475 221,237.5C 215.965,254.359 204.632,263.359 187,264.5C 166.2,262.367 154.7,250.867 152.5,230C 153.918,212.43 162.918,200.93 179.5,195.5 Z M 183.5,213.5 C 171.12,218.807 167.953,227.474 174,239.5C 184.04,249.21 193.373,248.544 202,237.5C 205.808,221.808 199.641,213.808 183.5,213.5 Z"/></g>
<g><path style="opacity:0.937" fill="#000000" d="M 297.5,237.5 C 300.421,238.065 303.088,239.232 305.5,241C 316.667,252.167 327.833,263.333 339,274.5C 341.009,279.61 341.843,284.943 341.5,290.5C 343.188,311.639 333.521,323.139 312.5,325C 311.069,325.465 309.903,326.299 309,327.5C 307.893,346.939 297.726,357.439 278.5,359C 277.069,359.465 275.903,360.299 275,361.5C 273.348,366.406 272.015,371.406 271,376.5C 267.571,384.929 261.404,390.096 252.5,392C 243.833,392.667 235.167,392.667 226.5,392C 213.696,380.196 201.196,368.03 189,355.5C 185.241,349.449 186.408,344.615 192.5,341C 199.833,340.667 207.167,340.333 214.5,340C 215.833,339.333 217.167,338.667 218.5,338C 220.476,332.671 221.976,327.171 223,321.5C 226.223,315.277 231.057,310.777 237.5,308C 242.633,307.125 247.633,305.792 252.5,304C 254.688,298.73 256.188,293.23 257,287.5C 259.075,283.421 261.908,279.921 265.5,277C 272.482,273.866 279.649,271.366 287,269.5C 287.862,267.913 288.529,266.246 289,264.5C 289.333,257.167 289.667,249.833 290,242.5C 291.913,239.72 294.413,238.053 297.5,237.5 Z M 306.5,268.5 C 306.657,269.873 306.49,271.207 306,272.5C 300.641,284.778 291.141,290.945 277.5,291C 276.333,292.167 275.167,293.333 274,294.5C 273.092,299.193 272.092,303.86 271,308.5C 265.291,319.45 256.125,324.95 243.5,325C 242.333,326.167 241.167,327.333 240,328.5C 239.567,343.911 232.067,353.744 217.5,358C 222.833,363.333 228.167,368.667 233.5,374C 239.585,374.861 245.585,374.527 251.5,373C 252.701,372.097 253.535,370.931 254,369.5C 255.085,351.416 264.585,341.583 282.5,340C 284.081,339.293 285.581,338.46 287,337.5C 288.792,332.633 290.125,327.633 291,322.5C 292.676,317.822 295.509,313.989 299.5,311C 306.482,307.866 313.649,305.366 321,303.5C 323.474,297.417 324.141,291.084 323,284.5C 317.631,278.964 312.131,273.63 306.5,268.5 Z"/></g>
</svg>
