<?xml version="1.0" encoding="UTF-8"?>
<!DOCTYPE svg PUBLIC "-//W3C//DTD SVG 1.1//EN" "http://www.w3.org/Graphics/SVG/1.1/DTD/svg11.dtd">
<svg xmlns="http://www.w3.org/2000/svg" version="1.1" width="512px" height="512px" style="shape-rendering:geometricPrecision; text-rendering:geometricPrecision; image-rendering:optimizeQuality; fill-rule:evenodd; clip-rule:evenodd" xmlns:xlink="http://www.w3.org/1999/xlink">
<g><path style="opacity:0.932" fill="#000000" d="M 367.5,15.5 C 440.002,12.5087 482.169,46.842 494,118.5C 498.458,170.334 486.458,218.001 458,261.5C 432.654,301.514 398.154,330.681 354.5,349C 334.219,356.874 313.219,360.04 291.5,358.5C 287.622,391.992 275.455,421.992 255,448.5C 218.14,488.941 174.307,498.774 123.5,478C 92.2583,462.426 67.7583,439.592 50,409.5C 11.3923,342.707 5.05896,273.04 31,200.5C 43.9873,168.513 66.154,145.347 97.5,131C 137.721,117.445 174.888,123.278 209,148.5C 232.855,94.3118 271.355,54.1451 324.5,28C 338.458,22.0986 352.791,17.932 367.5,15.5 Z M 369.5,32.5 C 384.793,31.4131 399.793,32.9131 414.5,37C 381.325,66.5572 358.158,102.724 345,145.5C 340.746,162.77 336.746,180.104 333,197.5C 323.8,228.242 309.133,255.909 289,280.5C 279.168,233.491 257.334,193.157 223.5,159.5C 244.053,110.119 277.72,72.6192 324.5,47C 339,40.221 354,35.3877 369.5,32.5 Z M 430.5,44.5 C 434.898,46.7253 438.898,49.5587 442.5,53C 410.1,82.4139 386.934,117.914 373,159.5C 367.794,181.197 362.461,202.863 357,224.5C 344.167,261.517 323.334,293.184 294.5,319.5C 293.808,318.975 293.308,318.308 293,317.5C 292.779,312.78 292.279,308.113 291.5,303.5C 329.963,261.703 352.796,212.369 360,155.5C 373.167,111.854 396.667,74.8537 430.5,44.5 Z M 453.5,65.5 C 462.797,75.7442 469.297,87.7442 473,101.5C 481.997,140.201 478.664,177.868 463,214.5C 441.658,266.508 405.825,305.008 355.5,330C 336.411,338.685 316.411,342.351 295.5,341C 336.478,308.243 363.812,266.41 377.5,215.5C 385.401,156.361 410.735,106.361 453.5,65.5 Z M 127.5,140.5 C 127.111,183.694 136.277,225.028 155,264.5C 164.208,281.032 174.208,297.032 185,312.5C 210.8,359.167 219.467,408.834 211,461.5C 207.031,463.901 202.865,465.901 198.5,467.5C 204.889,415.279 196.389,365.612 173,318.5C 163.833,302.829 154.167,287.496 144,272.5C 121.274,232.11 112.107,188.943 116.5,143C 120.347,142.367 124.014,141.533 127.5,140.5 Z M 146.5,141.5 C 169.567,144.702 189.9,153.869 207.5,169C 244.834,204.164 267.001,247.331 274,298.5C 280.445,341.057 273.779,381.39 254,419.5C 247.842,430.495 240.009,440.161 230.5,448.5C 234.773,398.826 225.273,351.826 202,307.5C 192.667,292.833 183.333,278.167 174,263.5C 153.291,225.458 144.124,184.791 146.5,141.5 Z M 97.5,149.5 C 96.0197,194.57 105.853,237.237 127,277.5C 136.333,292.167 145.667,306.833 155,321.5C 180.141,368.678 188.307,418.678 179.5,471.5C 148.868,472.236 122.201,462.402 99.5,442C 62.1668,406.501 40.3335,363.001 34,311.5C 27.4214,265.614 36.0881,222.947 60,183.5C 70.201,169.458 82.701,158.124 97.5,149.5 Z"/></g>
<g><path style="opacity:0.897" fill="#000000" d="M 297.5,89.5 C 307.135,88.9631 310.635,93.2964 308,102.5C 303.167,106.667 298.333,110.833 293.5,115C 284.333,116.5 280.5,112.667 282,103.5C 286.713,98.2849 291.88,93.6182 297.5,89.5 Z"/></g>
<g><path style="opacity:0.908" fill="#000000" d="M 267.5,118.5 C 277.636,117.463 281.47,121.796 279,131.5C 271.482,140.698 265.148,150.698 260,161.5C 253.727,167.365 248.394,166.698 244,159.5C 243.516,157.087 243.85,154.754 245,152.5C 251.269,140.28 258.769,128.947 267.5,118.5 Z"/></g>
<g><path style="opacity:0.901" fill="#000000" d="M 88.5,387.5 C 91.7935,387.259 94.7935,388.092 97.5,390C 100.303,394.436 103.469,398.603 107,402.5C 109.841,412.662 106.008,416.828 95.5,415C 90.5653,410.068 86.3986,404.568 83,398.5C 82.1757,393.482 84.0091,389.815 88.5,387.5 Z"/></g>
<g><path style="opacity:0.911" fill="#000000" d="M 114.5,418.5 C 117.518,418.335 120.518,418.502 123.5,419C 134.054,427.221 144.887,435.054 156,442.5C 158.216,451.61 154.716,455.777 145.5,455C 133.226,448.723 122.06,440.89 112,431.5C 109.606,426.527 110.44,422.194 114.5,418.5 Z"/></g>
</svg>
