<?xml version="1.0" encoding="UTF-8"?>
<!DOCTYPE svg PUBLIC "-//W3C//DTD SVG 1.1//EN" "http://www.w3.org/Graphics/SVG/1.1/DTD/svg11.dtd">
<svg xmlns="http://www.w3.org/2000/svg" version="1.1" width="512px" height="512px" style="shape-rendering:geometricPrecision; text-rendering:geometricPrecision; image-rendering:optimizeQuality; fill-rule:evenodd; clip-rule:evenodd" xmlns:xlink="http://www.w3.org/1999/xlink">
<g><path style="opacity:0.94" fill="#000000" d="M 311.5,-0.5 C 314.167,-0.5 316.833,-0.5 319.5,-0.5C 321.955,1.13988 323.455,3.47322 324,6.5C 326.581,35.7893 327.914,65.1226 328,94.5C 325.118,130.499 312.451,162.499 290,190.5C 281.667,198.833 273.333,207.167 265,215.5C 259.398,223.972 256.398,233.305 256,243.5C 255.333,284.167 255.333,324.833 256,365.5C 261.667,361.167 267.333,356.833 273,352.5C 279.996,330.844 286.996,309.178 294,287.5C 314.111,241.432 349.444,217.432 400,215.5C 410.701,216.2 421.201,218.033 431.5,221C 456.575,229.469 481.575,238.136 506.5,247C 508.687,248.025 510.354,249.525 511.5,251.5C 511.5,254.167 511.5,256.833 511.5,259.5C 510.254,261.901 508.254,263.401 505.5,264C 421.524,271.666 349.524,304.666 289.5,363C 278.333,371.5 267.167,380 256,388.5C 255.5,429.499 255.333,470.499 255.5,511.5C 249.5,511.5 243.5,511.5 237.5,511.5C 237.812,504.578 237.479,497.744 236.5,491C 226.01,485.922 215.677,480.589 205.5,475C 175.121,450.286 144.455,425.953 113.5,402C 80.4069,379.621 44.7403,362.288 6.5,350C 3.37935,349.033 1.04602,347.2 -0.5,344.5C -0.5,341.833 -0.5,339.167 -0.5,336.5C 1.03244,334.479 3.03244,332.979 5.5,332C 24.87,324.987 44.5367,318.987 64.5,314C 125.527,306.432 172.361,328.599 205,380.5C 218.34,406.527 224.173,434.193 222.5,463.5C 227.167,465.833 231.833,468.167 236.5,470.5C 237.667,408.503 237.833,346.503 237,284.5C 230.5,278 224,271.5 217.5,265C 151.094,262.541 103.928,231.374 76,171.5C 68.901,148.678 63.0676,125.511 58.5,102C 60.3448,94.1235 65.0114,91.4569 72.5,94C 96.7251,101.741 120.725,110.075 144.5,119C 197.817,147.374 226.651,191.874 231,252.5C 233,254.5 235,256.5 237,258.5C 234.512,231.6 243.179,209.267 263,191.5C 262.278,161.031 265.612,131.031 273,101.5C 283.602,69.6942 294.602,38.0275 306,6.5C 306.967,3.37935 308.8,1.04602 311.5,-0.5 Z M 308.5,53.5 C 315.295,95.9894 306.462,134.989 282,170.5C 282.032,150.91 284.365,131.577 289,112.5C 294.809,92.5746 301.309,72.9079 308.5,53.5 Z M 196.5,244.5 C 146.877,236.046 112.044,208.713 92,162.5C 86.8996,147.103 83.233,131.436 81,115.5C 96.8168,120.995 112.65,126.495 128.5,132C 167.956,148.789 194.123,177.622 207,218.5C 208.324,222.446 208.991,226.446 209,230.5C 186.667,208.167 164.333,185.833 142,163.5C 137.651,167.682 133.485,172.015 129.5,176.5C 151.854,199.188 174.188,221.854 196.5,244.5 Z M 395.5,233.5 C 404.258,233.978 412.925,235.145 421.5,237C 435.75,241.416 449.75,246.416 463.5,252C 402.792,263.611 348.625,288.778 301,327.5C 305.077,304.679 314.077,284.013 328,265.5C 346.401,246.048 368.901,235.381 395.5,233.5 Z M 73.5,330.5 C 128.976,327.307 169.143,350.307 194,399.5C 200.993,415.465 203.993,432.132 203,449.5C 173.023,424.519 142.19,400.686 110.5,378C 86.9487,363.558 62.2821,351.224 36.5,341C 48.6554,336.382 60.9888,332.882 73.5,330.5 Z"/></g>
</svg>
