<?xml version="1.0" encoding="UTF-8"?>
<!DOCTYPE svg PUBLIC "-//W3C//DTD SVG 1.1//EN" "http://www.w3.org/Graphics/SVG/1.1/DTD/svg11.dtd">
<svg xmlns="http://www.w3.org/2000/svg" version="1.1" width="512px" height="512px" style="shape-rendering:geometricPrecision; text-rendering:geometricPrecision; image-rendering:optimizeQuality; fill-rule:evenodd; clip-rule:evenodd" xmlns:xlink="http://www.w3.org/1999/xlink">
<g><path style="opacity:0.942" fill="#000000" d="M 111.5,-0.5 C 207.5,-0.5 303.5,-0.5 399.5,-0.5C 427.481,7.78374 439.648,26.4504 436,55.5C 433.309,66.3756 427.475,75.209 418.5,82C 427.06,92.619 433.393,104.452 437.5,117.5C 437.167,118.167 436.833,118.833 436.5,119.5C 444.858,130.056 450.024,142.056 452,155.5C 452.667,253.167 452.667,350.833 452,448.5C 445.101,482.898 424.601,503.898 390.5,511.5C 300.5,511.5 210.5,511.5 120.5,511.5C 86.3993,503.898 65.8993,482.898 59,448.5C 58.3333,350.5 58.3333,252.5 59,154.5C 60.5621,144.81 63.8955,135.81 69,127.5C 67.7442,120.647 68.4109,113.981 71,107.5C 77.0684,98.0954 83.9017,89.2621 91.5,81C 74.1676,66.7143 69.3342,48.881 77,27.5C 84.1934,12.8017 95.6934,3.4684 111.5,-0.5 Z M 114.5,17.5 C 209.557,17.0072 304.557,17.5072 399.5,19C 417.646,27.4684 422.813,40.9684 415,59.5C 411.055,64.4446 406.221,68.278 400.5,71C 396.032,74.3864 394.865,78.5531 397,83.5C 404.995,93.4823 411.995,104.149 418,115.5C 419.167,122.333 416.333,125.167 409.5,124C 408.333,122.833 407.167,121.667 406,120.5C 403.371,98.191 391.205,89.691 369.5,95C 359.599,100.957 354.432,109.791 354,121.5C 349.098,125.986 345.098,125.319 342,119.5C 341.178,103.18 332.678,94.1798 316.5,92.5C 300.469,94.8535 291.969,104.187 291,120.5C 287.385,125.423 283.385,125.756 279,121.5C 275.645,96.247 262.145,88.0803 238.5,97C 234.908,99.921 232.075,103.421 230,107.5C 229.125,112.633 227.792,117.633 226,122.5C 221.675,125.569 218.008,124.902 215,120.5C 212.371,98.191 200.205,89.691 178.5,95C 168.608,100.936 163.441,109.769 163,121.5C 159.254,125.393 155.588,125.393 152,121.5C 149.916,100.235 138.416,91.0679 117.5,94C 110.457,96.3786 105.29,100.879 102,107.5C 101.125,112.633 99.7918,117.633 98,122.5C 93.5847,125.55 89.9181,124.883 87,120.5C 86.3333,119.167 86.3333,117.833 87,116.5C 93.7381,106.425 101.238,96.9251 109.5,88C 195.833,87.6667 282.167,87.3333 368.5,87C 373.833,81.6667 373.833,76.3333 368.5,71C 367.167,70.6667 365.833,70.3333 364.5,70C 277.833,69.6667 191.167,69.3333 104.5,69C 90.0728,57.1169 87.9062,43.2836 98,27.5C 102.726,22.7277 108.226,19.3944 114.5,17.5 Z M 124.5,110.5 C 126.991,110.829 129.157,111.829 131,113.5C 132.592,133.769 143.426,143.269 163.5,142C 171.111,140.054 176.611,135.554 180,128.5C 181.441,123.507 182.775,118.507 184,113.5C 187.516,109.654 191.016,109.654 194.5,113.5C 196.964,135.489 208.964,144.656 230.5,141C 241.155,135.55 246.655,126.717 247,114.5C 251,109.167 255,109.167 259,114.5C 262.599,139.547 276.099,147.38 299.5,138C 306.642,131.427 310.642,123.26 311.5,113.5C 314.984,109.654 318.484,109.654 322,113.5C 323.592,133.769 334.426,143.269 354.5,142C 362.111,140.054 367.611,135.554 371,128.5C 372.441,123.507 373.775,118.507 375,113.5C 378.516,109.654 382.016,109.654 385.5,113.5C 385.981,124.968 390.981,133.802 400.5,140C 409.853,143.908 418.686,143.074 427,137.5C 430.471,143.775 432.805,150.441 434,157.5C 434.667,253.833 434.667,350.167 434,446.5C 428.59,471.576 413.423,487.076 388.5,493C 299.833,493.667 211.167,493.667 122.5,493C 97.5767,487.076 82.4101,471.576 77,446.5C 76.3333,350.167 76.3333,253.833 77,157.5C 77.6836,151.592 79.5169,146.092 82.5,141C 104.115,145.403 116.282,136.57 119,114.5C 120.812,113.023 122.645,111.69 124.5,110.5 Z M 118.5,217.5 C 209.833,217.5 301.167,217.5 392.5,217.5C 392.5,274.5 392.5,331.5 392.5,388.5C 301.167,388.5 209.833,388.5 118.5,388.5C 118.5,331.5 118.5,274.5 118.5,217.5 Z"/></g>
<g><path style="opacity:0.948" fill="#000000" d="M 104.5,199.5 C 205.167,199.333 305.834,199.5 406.5,200C 408.049,201.214 409.215,202.714 410,204.5C 410.993,270.915 410.659,337.249 409,403.5C 408.097,404.701 406.931,405.535 405.5,406C 304.752,406.995 204.086,406.662 103.5,405C 102.299,404.097 101.465,402.931 101,401.5C 100.333,335.833 100.333,270.167 101,204.5C 101.997,202.677 103.164,201.01 104.5,199.5 Z M 118.5,217.5 C 118.5,274.5 118.5,331.5 118.5,388.5C 209.833,388.5 301.167,388.5 392.5,388.5C 392.5,331.5 392.5,274.5 392.5,217.5C 301.167,217.5 209.833,217.5 118.5,217.5 Z"/></g>
</svg>
