<?xml version="1.0" encoding="UTF-8"?>
<!DOCTYPE svg PUBLIC "-//W3C//DTD SVG 1.1//EN" "http://www.w3.org/Graphics/SVG/1.1/DTD/svg11.dtd">
<svg xmlns="http://www.w3.org/2000/svg" version="1.1" width="512px" height="512px" style="shape-rendering:geometricPrecision; text-rendering:geometricPrecision; image-rendering:optimizeQuality; fill-rule:evenodd; clip-rule:evenodd" xmlns:xlink="http://www.w3.org/1999/xlink">
<g><path style="opacity:0.945" fill="#000000" d="M 176.5,-0.5 C 182.167,-0.5 187.833,-0.5 193.5,-0.5C 200.174,1.43485 205.341,5.43485 209,11.5C 227.458,51.4135 245.625,91.4135 263.5,131.5C 275.505,131.667 287.505,131.5 299.5,131C 290.433,82.8143 305.766,44.481 345.5,16C 359.192,7.60647 373.859,2.10647 389.5,-0.5C 399.167,-0.5 408.833,-0.5 418.5,-0.5C 458.416,6.56897 486.916,28.569 504,65.5C 507.309,74.4175 509.809,83.4175 511.5,92.5C 511.5,102.167 511.5,111.833 511.5,121.5C 503.718,165.459 478.718,194.959 436.5,210C 422.429,213.909 408.095,215.409 393.5,214.5C 405.138,282.189 416.971,349.856 429,417.5C 430.496,429.532 427.83,440.532 421,450.5C 407.667,465.833 394.333,481.167 381,496.5C 374.183,503.839 366.016,508.839 356.5,511.5C 278.833,511.5 201.167,511.5 123.5,511.5C 87.8607,506.181 58.5273,489.681 35.5,462C 28.8447,460.002 22.178,458.002 15.5,456C 7.34144,451.688 2.0081,445.188 -0.5,436.5C -0.5,431.167 -0.5,425.833 -0.5,420.5C 2.83177,411.663 8.83177,405.163 17.5,401C 24.0911,399.77 30.4244,397.77 36.5,395C 64.7449,362.051 100.745,345.551 144.5,345.5C 156.041,276.297 168.541,207.297 182,138.5C 184.928,134.619 188.761,132.119 193.5,131C 179.872,102.91 166.372,74.7429 153,46.5C 144.193,31.7364 146.027,18.5697 158.5,7C 164.479,4.18163 170.479,1.68163 176.5,-0.5 Z M 181.5,16.5 C 184.978,16.1842 188.312,16.6842 191.5,18C 194.42,22.5038 197.086,27.1705 199.5,32C 188.5,32.6667 177.5,32.6667 166.5,32C 164.732,27.6313 165.732,23.9646 169.5,21C 173.715,19.7659 177.715,18.2659 181.5,16.5 Z M 394.5,16.5 C 435.832,15.0751 466.332,32.4084 486,68.5C 502.775,111.901 493.608,148.735 458.5,179C 437.918,194.021 415.085,199.521 390,195.5C 388.672,190.208 388.005,184.874 388,179.5C 429.411,185.962 458.411,169.962 475,131.5C 485.103,94.4652 474.603,64.9652 443.5,43C 406.168,24.0011 373.335,29.8345 345,60.5C 329.384,81.8604 325.551,105.194 333.5,130.5C 327.946,131.806 322.446,131.806 317,130.5C 307.99,87.1737 321.823,53.3404 358.5,29C 369.894,22.7037 381.894,18.537 394.5,16.5 Z M 174.5,50.5 C 185.34,49.1762 196.34,49.1762 207.5,50.5C 209.548,55.4803 211.881,60.3136 214.5,65C 203.485,65.8324 192.485,65.6658 181.5,64.5C 179.121,59.7415 176.787,55.0748 174.5,50.5 Z M 392.5,50.5 C 393.5,50.5 394.5,50.5 395.5,50.5C 395.832,61.5202 395.499,72.5202 394.5,83.5C 392.082,84.4572 389.916,85.7905 388,87.5C 378.582,81.8737 369.082,76.3737 359.5,71C 368.375,60.6022 379.375,53.7689 392.5,50.5 Z M 412.5,50.5 C 426.978,52.9076 438.978,59.741 448.5,71C 438.918,76.3737 429.418,81.8737 420,87.5C 418.084,85.7905 415.918,84.4572 413.5,83.5C 412.501,72.5202 412.168,61.5202 412.5,50.5 Z M 190.5,82.5 C 201.187,82.168 211.854,82.5013 222.5,83.5C 224.933,88.3076 227.266,93.141 229.5,98C 218.833,98.6667 208.167,98.6667 197.5,98C 195.026,92.8863 192.693,87.7197 190.5,82.5 Z M 350.5,86.5 C 360.409,91.7404 370.076,97.4071 379.5,103.5C 378.704,106.269 378.371,108.936 378.5,111.5C 369.251,116.707 360.085,122.04 351,127.5C 345.285,113.888 345.118,100.221 350.5,86.5 Z M 456.5,86.5 C 462.97,99.9071 463.136,113.574 457,127.5C 448.249,122.207 439.415,117.041 430.5,112C 429.167,108.667 429.167,105.333 430.5,102C 439.395,97.059 448.062,91.8923 456.5,86.5 Z M 400.5,99.5 C 408.656,98.8211 412.156,102.488 411,110.5C 406.959,115.313 402.625,115.646 398,111.5C 395.696,106.855 396.529,102.855 400.5,99.5 Z M 205.5,116.5 C 215.992,115.341 226.659,115.175 237.5,116C 239.833,121 242.167,126 244.5,131C 234.167,131.667 223.833,131.667 213.5,131C 210.932,126.024 208.266,121.191 205.5,116.5 Z M 387.5,126.5 C 389.877,128.039 392.377,129.373 395,130.5C 395.832,141.515 395.666,152.515 394.5,163.5C 391.167,162.5 387.833,161.5 384.5,160.5C 382.788,154.24 381.288,147.907 380,141.5C 378.533,138.734 376.7,136.234 374.5,134C 379.002,131.636 383.335,129.136 387.5,126.5 Z M 419.5,126.5 C 429.437,131.47 439.104,136.97 448.5,143C 439.28,153.946 427.613,160.779 413.5,163.5C 412.167,152.5 412.167,141.5 413.5,130.5C 415.813,129.5 417.813,128.166 419.5,126.5 Z M 196.5,148.5 C 198.5,148.5 200.5,148.5 202.5,148.5C 209.268,164.706 216.601,180.706 224.5,196.5C 212.518,197.499 200.518,197.832 188.5,197.5C 191.275,181.184 193.942,164.851 196.5,148.5 Z M 221.5,149.5 C 231.658,148.341 241.992,148.175 252.5,149C 254.689,153.879 257.022,158.712 259.5,163.5C 255.94,165.28 252.273,167.113 248.5,169C 244.298,172.867 240.465,177.033 237,181.5C 232.059,170.62 226.892,159.953 221.5,149.5 Z M 272.5,148.5 C 302.841,148.167 333.174,148.5 363.5,149.5C 366.608,165.146 369.608,180.813 372.5,196.5C 355.51,197.666 338.51,197.833 321.5,197C 308.167,187.667 294.833,178.333 281.5,169C 278.084,162.336 275.084,155.503 272.5,148.5 Z M 262.5,181.5 C 266.131,181.16 269.464,181.994 272.5,184C 278.5,188.333 284.5,192.667 290.5,197C 276.488,197.833 262.488,197.666 248.5,196.5C 252.515,190.729 257.181,185.729 262.5,181.5 Z M 185.5,214.5 C 194.173,214.334 202.84,214.5 211.5,215C 205,223.5 198.5,232 192,240.5C 186.393,254.016 188.893,265.85 199.5,276C 211.048,283.934 222.381,292.1 233.5,300.5C 230.806,304.554 228.639,308.888 227,313.5C 224.128,329.526 221.128,345.526 218,361.5C 200.726,352.056 182.226,347.056 162.5,346.5C 169.658,302.38 177.325,258.38 185.5,214.5 Z M 234.5,214.5 C 261.835,214.333 289.169,214.5 316.5,215C 325.333,221.167 334.167,227.333 343,233.5C 345.374,236.801 346.04,240.467 345,244.5C 328.667,265.833 312.333,287.167 296,308.5C 292.169,312.128 287.669,313.295 282.5,312C 258.5,295.333 234.5,278.667 210.5,262C 206.482,258.057 205.649,253.557 208,248.5C 216.666,237.005 225.5,225.671 234.5,214.5 Z M 347.5,215.5 C 356.652,214.506 365.985,214.173 375.5,214.5C 387.224,281.841 399.057,349.174 411,416.5C 412.808,425.284 411.142,433.284 406,440.5C 391.48,457.35 376.646,473.85 361.5,490C 358.382,491.893 355.049,493.226 351.5,494C 308.833,494.667 266.167,494.667 223.5,494C 237.025,485.478 249.025,475.145 259.5,463C 266.332,460.207 273.332,457.874 280.5,456C 287.386,452.114 292.553,446.614 296,439.5C 307.744,444.144 319.91,445.978 332.5,445C 344.323,442.508 352.49,435.675 357,424.5C 362.096,399.924 366.763,375.257 371,350.5C 373.701,333.413 367.868,320.246 353.5,311C 343.486,307.869 333.486,304.869 323.5,302C 335,287.167 346.5,272.333 358,257.5C 365.498,245.633 365.165,233.966 357,222.5C 354.219,219.538 351.052,217.204 347.5,215.5 Z M 248.5,310.5 C 256.645,315.743 264.645,321.243 272.5,327C 287.92,333.551 300.92,330.384 311.5,317.5C 322.161,320.332 332.828,323.165 343.5,326C 350.109,329.459 353.776,334.959 354.5,342.5C 350.108,367.184 345.608,391.85 341,416.5C 337.897,423.766 332.397,427.766 324.5,428.5C 315.465,426.491 306.465,424.325 297.5,422C 294.893,414.798 290.559,408.798 284.5,404C 276.328,400.541 267.995,397.541 259.5,395C 252.296,386.129 244.129,378.295 235,371.5C 237.471,353.804 240.471,336.137 244,318.5C 245.259,315.644 246.759,312.977 248.5,310.5 Z M 127.5,363.5 C 158.179,359.713 187.179,364.88 214.5,379C 218.833,382 223.167,385 227.5,388C 235.856,395.358 243.856,403.024 251.5,411C 259.118,413.821 266.784,416.487 274.5,419C 281.099,425.593 281.099,432.26 274.5,439C 265.894,441.235 257.56,444.235 249.5,448C 218.1,485.008 178.1,500.341 129.5,494C 108.176,491.783 88.8423,484.449 71.5,472C 62.1667,463.333 52.8333,454.667 43.5,446C 36.1667,443.667 28.8333,441.333 21.5,439C 14.9348,432.299 14.9348,425.632 21.5,419C 29.9948,416.459 38.3282,413.459 46.5,410C 67.5935,384.123 94.5935,368.623 127.5,363.5 Z"/></g>
<g><path style="opacity:0.873" fill="#000000" d="M 177.5,387.5 C 187.156,386.657 190.989,390.99 189,400.5C 184.281,405.366 179.281,405.699 174,401.5C 171.267,395.722 172.434,391.056 177.5,387.5 Z"/></g>
<g><path style="opacity:0.876" fill="#000000" d="M 211.5,403.5 C 221.696,403.874 224.862,408.874 221,418.5C 213.15,423.274 207.983,421.274 205.5,412.5C 205.944,408.402 207.944,405.402 211.5,403.5 Z"/></g>
<g><path style="opacity:0.873" fill="#000000" d="M 160.5,420.5 C 172.713,419.985 176.046,425.152 170.5,436C 162.807,439.319 157.807,436.986 155.5,429C 156.15,425.528 157.816,422.695 160.5,420.5 Z"/></g>
<g><path style="opacity:0.866" fill="#000000" d="M 195.5,436.5 C 204.86,437.02 208.027,441.687 205,450.5C 197.263,456.558 191.763,454.891 188.5,445.5C 189.201,441.039 191.535,438.039 195.5,436.5 Z"/></g>
</svg>
