<?xml version="1.0" encoding="UTF-8"?>
<!DOCTYPE svg PUBLIC "-//W3C//DTD SVG 1.1//EN" "http://www.w3.org/Graphics/SVG/1.1/DTD/svg11.dtd">
<svg xmlns="http://www.w3.org/2000/svg" version="1.1" width="512px" height="512px" style="shape-rendering:geometricPrecision; text-rendering:geometricPrecision; image-rendering:optimizeQuality; fill-rule:evenodd; clip-rule:evenodd" xmlns:xlink="http://www.w3.org/1999/xlink">
<g><path style="opacity:0.932" fill="#000000" d="M 112.5,15.5 C 127.367,13.0115 137.534,18.6782 143,32.5C 145.982,47.3761 140.482,57.5428 126.5,63C 111.624,65.9816 101.457,60.4816 96,46.5C 93.1465,31.5328 98.6465,21.1994 112.5,15.5 Z M 116.5,32.5 C 125.85,32.3654 128.517,36.532 124.5,45C 115.956,48.3224 112.123,45.4891 113,36.5C 113.69,34.6498 114.856,33.3164 116.5,32.5 Z"/></g>
<g><path style="opacity:0.932" fill="#000000" d="M 216.5,39.5 C 231.367,37.0115 241.534,42.6782 247,56.5C 249.982,71.3761 244.482,81.5428 230.5,87C 215.624,89.9816 205.457,84.4816 200,70.5C 197.146,55.5328 202.646,45.1994 216.5,39.5 Z M 220.5,56.5 C 229.85,56.3654 232.517,60.532 228.5,69C 219.956,72.3224 216.123,69.4891 217,60.5C 217.69,58.6498 218.856,57.3164 220.5,56.5 Z"/></g>
<g><path style="opacity:0.945" fill="#000000" d="M 331.5,39.5 C 347.503,39.3334 363.503,39.5001 379.5,40C 389.252,70.9641 381.919,97.6307 357.5,120C 340.338,132.959 321.004,138.125 299.5,135.5C 290.736,135.639 282.07,135.139 273.5,134C 265.697,100.74 275.031,73.407 301.5,52C 310.792,45.8458 320.792,41.6791 331.5,39.5 Z M 343.5,55.5 C 351.5,55.5 359.5,55.5 367.5,55.5C 366.38,97.787 344.714,118.954 302.5,119C 315.672,107.991 328.672,96.8245 341.5,85.5C 337.667,81.1667 333.833,76.8333 330,72.5C 316.407,84.0485 302.907,95.7152 289.5,107.5C 290.397,87.8911 299.397,73.0578 316.5,63C 325.15,58.7574 334.15,56.2574 343.5,55.5 Z"/></g>
<g><path style="opacity:0.944" fill="#000000" d="M 67.5,85.5 C 100.058,82.3958 126.558,93.3958 147,118.5C 159.666,105.117 175.166,100.284 193.5,104C 231.72,112.72 255.054,136.22 263.5,174.5C 290.568,175.938 310.235,188.605 322.5,212.5C 332.184,216.257 342.184,218.09 352.5,218C 354.028,216.352 354.695,214.352 354.5,212C 352.571,202.118 350.404,192.284 348,182.5C 343.785,155.431 353.618,135.264 377.5,122C 396.112,111.688 414.446,112.021 432.5,123C 441.785,131.067 447.285,141.234 449,153.5C 452.454,173.1 449.787,191.767 441,209.5C 438.5,212.667 436,215.833 433.5,219C 462.268,220.123 482.768,233.623 495,259.5C 494.16,351.042 454.66,420.208 376.5,467C 329.449,491.621 279.449,500.955 226.5,495C 146.081,485.233 85.2476,445.733 44,376.5C 20.7549,333.942 11.7549,288.608 17,240.5C 19.8338,230.665 25.6672,223.165 34.5,218C 41.5954,214.119 48.9287,210.785 56.5,208C 43.7893,189.419 31.9559,170.253 21,150.5C 9.29142,127.292 14.4581,108.792 36.5,95C 46.5531,90.479 56.8864,87.3123 67.5,85.5 Z M 69.5,102.5 C 104.839,100.039 129.339,115.039 143,147.5C 154.723,177.805 154.056,207.805 141,237.5C 128.589,192.169 105.089,153.669 70.5,122C 69.5,121.333 68.5,121.333 67.5,122C 64.3532,125.981 61.0199,129.814 57.5,133.5C 93.9676,166.36 116.968,207.027 126.5,255.5C 122.116,255.826 117.783,255.492 113.5,254.5C 82.466,218.285 55.966,178.952 34,136.5C 30.8606,128.259 32.3606,121.092 38.5,115C 41.6587,111.918 45.3253,109.584 49.5,108C 56.2081,105.826 62.8748,103.993 69.5,102.5 Z M 162.5,231.5 C 171.176,198.653 169.176,166.319 156.5,134.5C 164.978,122.277 176.645,117.777 191.5,121C 221.195,128.86 239.528,147.694 246.5,177.5C 216.675,187.339 200.675,208.006 198.5,239.5C 199.429,244.787 200.096,250.121 200.5,255.5C 188.829,255.667 177.162,255.5 165.5,255C 190.518,228.121 204.518,196.287 207.5,159.5C 201.839,159.093 196.172,158.76 190.5,158.5C 188.094,185.62 178.761,209.953 162.5,231.5 Z M 400.5,131.5 C 418.112,130.218 428.612,138.218 432,155.5C 434.931,170.719 433.264,185.386 427,199.5C 423.089,204.322 419.422,209.322 416,214.5C 412.558,224.448 415.725,231.281 425.5,235C 444.514,234.107 460.18,240.773 472.5,255C 446.16,255.833 419.827,255.667 393.5,254.5C 398.878,226.156 406.211,198.323 415.5,171C 415.095,170.055 414.428,169.388 413.5,169C 409.129,167.599 404.796,166.099 400.5,164.5C 389.561,193.917 381.561,224.25 376.5,255.5C 359.833,255.5 343.167,255.5 326.5,255.5C 327.157,247.519 327.657,239.519 328,231.5C 336.84,234.999 346.007,236.166 355.5,235C 366.45,231.772 371.783,224.439 371.5,213C 369.048,198.639 366.381,184.306 363.5,170C 365.637,153.179 374.637,141.512 390.5,135C 393.98,133.897 397.313,132.731 400.5,131.5 Z M 254.5,192.5 C 255.487,197.305 255.821,202.305 255.5,207.5C 260.833,207.5 266.167,207.5 271.5,207.5C 271.334,202.489 271.501,197.489 272,192.5C 290.479,197.148 302.645,208.481 308.5,226.5C 302.71,227.538 297.377,229.538 292.5,232.5C 294.099,236.796 295.599,241.129 297,245.5C 297.388,246.428 298.055,247.095 299,247.5C 302.76,246.358 306.427,245.025 310,243.5C 310.156,247.555 309.656,251.555 308.5,255.5C 278.5,255.5 248.5,255.5 218.5,255.5C 216.701,248.943 216.201,242.277 217,235.5C 220.573,237.025 224.24,238.358 228,239.5C 228.945,239.095 229.612,238.428 230,237.5C 231.401,233.129 232.901,228.796 234.5,224.5C 230.628,221.872 226.295,220.205 221.5,219.5C 228.033,205.064 239.033,196.064 254.5,192.5 Z M 65.5,222.5 C 74.2675,233.172 82.9342,244.006 91.5,255C 71.8362,255.5 52.1695,255.667 32.5,255.5C 31.1198,246.468 34.1198,239.302 41.5,234C 49.4386,229.863 57.4386,226.029 65.5,222.5 Z M 32.5,271.5 C 181.167,271.5 329.833,271.5 478.5,271.5C 471.411,362.892 426.078,427.059 342.5,464C 285.61,484.216 228.61,484.55 171.5,465C 100.616,435.777 55.7825,383.944 37,309.5C 34.22,296.98 32.72,284.313 32.5,271.5 Z"/></g>
<g><path style="opacity:1" fill="#000000" d="M 255.5,223.5 C 260.833,223.5 266.167,223.5 271.5,223.5C 271.5,228.833 271.5,234.167 271.5,239.5C 266.167,239.5 260.833,239.5 255.5,239.5C 255.5,234.167 255.5,228.833 255.5,223.5 Z"/></g>
<g><path style="opacity:0.918" fill="#000000" d="M 85.5,346.5 C 107.424,379.818 136.09,405.818 171.5,424.5C 169.089,429.579 166.589,434.579 164,439.5C 125.235,420.736 94.7354,392.903 72.5,356C 76.8702,352.822 81.2035,349.655 85.5,346.5 Z"/></g>
<g><path style="opacity:1" fill="#000000" d="M 183.5,431.5 C 188.833,431.5 194.167,431.5 199.5,431.5C 199.5,436.833 199.5,442.167 199.5,447.5C 194.167,447.5 188.833,447.5 183.5,447.5C 183.5,442.167 183.5,436.833 183.5,431.5 Z"/></g>
</svg>
