<?xml version="1.0" encoding="UTF-8"?>
<!DOCTYPE svg PUBLIC "-//W3C//DTD SVG 1.1//EN" "http://www.w3.org/Graphics/SVG/1.1/DTD/svg11.dtd">
<svg xmlns="http://www.w3.org/2000/svg" version="1.1" width="512px" height="512px" style="shape-rendering:geometricPrecision; text-rendering:geometricPrecision; image-rendering:optimizeQuality; fill-rule:evenodd; clip-rule:evenodd" xmlns:xlink="http://www.w3.org/1999/xlink">
<g><path style="opacity:0.955" fill="#000000" d="M 511.5,228.5 C 511.5,257.833 511.5,287.167 511.5,316.5C 508.164,332.667 500.497,346.501 488.5,358C 506.424,374.62 510.091,393.953 499.5,416C 504.607,416.402 508.607,418.569 511.5,422.5C 511.5,442.167 511.5,461.833 511.5,481.5C 505.055,497.756 493.055,507.256 475.5,510C 328.833,510.667 182.167,510.667 35.5,510C 17.9454,507.256 5.94543,497.756 -0.5,481.5C -0.5,461.833 -0.5,442.167 -0.5,422.5C 2.39341,418.569 6.39341,416.402 11.5,416C 3.17387,399.891 3.67387,384.057 13,368.5C 15.5,364.667 18.6667,361.5 22.5,359C 10.2628,348.018 2.59612,334.518 -0.5,318.5C -0.5,288.167 -0.5,257.833 -0.5,227.5C 15.8146,161.241 32.3146,94.9076 49,28.5C 57.0074,4.57889 73.1741,-3.92111 97.5,3C 102.916,5.13891 108.249,7.47224 113.5,10C 241.247,80.0684 369.247,149.735 497.5,219C 502.715,221.435 507.382,224.601 511.5,228.5 Z M 79.5,21.5 C 88.0794,22.0816 96.0794,24.5816 103.5,29C 222.167,93.6667 340.833,158.333 459.5,223C 314.167,223.5 168.834,223.667 23.5,223.5C 37.3475,164.109 51.5142,104.776 66,45.5C 67.745,39.2638 70.0784,33.2638 73,27.5C 75.0627,25.2659 77.2294,23.2659 79.5,21.5 Z M 20.5,244.5 C 177.167,244.5 333.833,244.5 490.5,244.5C 490.5,261.5 490.5,278.5 490.5,295.5C 474.83,295.333 459.163,295.5 443.5,296C 436.526,299.118 434.359,304.285 437,311.5C 438.543,313.378 440.376,314.878 442.5,316C 458.167,316.333 473.833,316.667 489.5,317C 483.386,335.783 471.053,348.783 452.5,356C 431.937,364.287 410.937,365.621 389.5,360C 384.154,357.997 379.487,354.997 375.5,351C 371.5,349 367.5,349 363.5,351C 342.522,369.244 318.522,374.91 291.5,368C 302.833,351 314.167,334 325.5,317C 337.167,316.667 348.833,316.333 360.5,316C 368.668,310.485 369.334,304.152 362.5,297C 361.5,296.667 360.5,296.333 359.5,296C 246.5,295.5 133.5,295.333 20.5,295.5C 20.5,278.5 20.5,261.5 20.5,244.5 Z M 21.5,316.5 C 41.8361,316.333 62.1694,316.5 82.5,317C 92.0422,331.919 101.709,346.752 111.5,361.5C 86.8544,366.472 63.8544,361.972 42.5,348C 31.3721,340.242 24.3721,329.742 21.5,316.5 Z M 108.5,316.5 C 172.17,316.167 235.837,316.5 299.5,317.5C 274,356.5 248.5,395.5 223,434.5C 211.899,446.544 199.899,447.544 187,437.5C 160.584,397.266 134.417,356.933 108.5,316.5 Z M 468.5,371.5 C 484.671,380.184 488.171,392.517 479,408.5C 475.579,412.257 471.412,414.757 466.5,416C 397.833,416.667 329.167,416.667 260.5,416C 267,406.167 273.5,396.333 280,386.5C 312.172,396.951 342.172,392.618 370,373.5C 375.583,377.54 381.749,380.374 388.5,382C 416.568,388.286 443.235,384.786 468.5,371.5 Z M 39.5,372.5 C 46.4854,374.885 53.4854,377.385 60.5,380C 81.3915,386.25 102.391,386.75 123.5,381.5C 132.019,392.54 140.019,404.04 147.5,416C 113.167,416.667 78.8333,416.667 44.5,416C 29.0004,410.166 23.8337,399.332 29,383.5C 31.7621,379.055 35.2621,375.389 39.5,372.5 Z M 20.5,437.5 C 67.5012,437.333 114.501,437.5 161.5,438C 177.777,466.072 200.444,472.739 229.5,458C 236.332,452.343 241.999,445.676 246.5,438C 327.833,437.5 409.166,437.333 490.5,437.5C 490.667,450.504 490.5,463.504 490,476.5C 486.583,483.966 480.75,488.132 472.5,489C 327.833,489.667 183.167,489.667 38.5,489C 30.2502,488.132 24.4169,483.966 21,476.5C 20.5001,463.504 20.3334,450.504 20.5,437.5 Z"/></g>
<g><path style="opacity:0.89" fill="#000000" d="M 98.5,69.5 C 109.49,67.9918 114.324,72.6585 113,83.5C 107.515,91.8616 101.182,92.5283 94,85.5C 91.1725,78.8512 92.6725,73.5179 98.5,69.5 Z"/></g>
<g><path style="opacity:0.896" fill="#000000" d="M 151.5,87.5 C 162.666,86.8218 167.166,91.8218 165,102.5C 160.66,108.864 155.16,110.031 148.5,106C 143.219,98.8935 144.219,92.7268 151.5,87.5 Z"/></g>
<g><path style="opacity:0.896" fill="#000000" d="M 74.5,131.5 C 85.2271,131.374 89.3938,136.374 87,146.5C 84.0812,152.025 79.5812,153.858 73.5,152C 67.3189,148.788 65.4856,143.954 68,137.5C 69.4361,134.558 71.6028,132.558 74.5,131.5 Z"/></g>
<g><path style="opacity:0.891" fill="#000000" d="M 197.5,133.5 C 208.032,133.199 212.199,138.199 210,148.5C 206.723,154.109 201.89,155.942 195.5,154C 187.095,146.211 187.762,139.378 197.5,133.5 Z"/></g>
<g><path style="opacity:0.888" fill="#000000" d="M 257.5,176.5 C 270.138,176.961 273.971,182.961 269,194.5C 265.239,197.243 261.072,198.076 256.5,197C 249.938,192.401 248.771,186.568 253,179.5C 254.652,178.601 256.152,177.601 257.5,176.5 Z"/></g>
<g><path style="opacity:0.885" fill="#000000" d="M 328.5,178.5 C 341.138,178.961 344.971,184.961 340,196.5C 336.319,199.36 332.152,200.193 327.5,199C 320.938,194.401 319.771,188.568 324,181.5C 325.652,180.601 327.152,179.601 328.5,178.5 Z"/></g>
<g><path style="opacity:0.886" fill="#000000" d="M 100.5,183.5 C 113.095,183.926 116.929,189.926 112,201.5C 108.319,204.36 104.152,205.193 99.5,204C 93.8912,200.723 92.0578,195.89 94,189.5C 95.4936,186.686 97.6603,184.686 100.5,183.5 Z"/></g>
<g><path style="opacity:0.896" fill="#000000" d="M 168.5,183.5 C 179.651,183.491 183.818,188.824 181,199.5C 174.667,206.167 168.333,206.167 162,199.5C 159.626,192.336 161.792,187.003 168.5,183.5 Z"/></g>
<g><path style="opacity:0.896" fill="#000000" d="M 398.5,295.5 C 409.193,295.344 413.36,300.344 411,310.5C 408.081,316.025 403.581,317.858 397.5,316C 391.477,312.736 389.644,307.903 392,301.5C 393.436,298.558 395.603,296.558 398.5,295.5 Z"/></g>
</svg>
