<?xml version="1.0" encoding="UTF-8"?>
<!DOCTYPE svg PUBLIC "-//W3C//DTD SVG 1.1//EN" "http://www.w3.org/Graphics/SVG/1.1/DTD/svg11.dtd">
<svg xmlns="http://www.w3.org/2000/svg" version="1.1" width="512px" height="512px" style="shape-rendering:geometricPrecision; text-rendering:geometricPrecision; image-rendering:optimizeQuality; fill-rule:evenodd; clip-rule:evenodd" xmlns:xlink="http://www.w3.org/1999/xlink">
<g><path style="opacity:0.939" fill="#000000" d="M 511.5,134.5 C 511.5,155.5 511.5,176.5 511.5,197.5C 508.318,204.163 502.985,207.996 495.5,209C 468.08,209.017 440.747,209.684 413.5,211C 390.964,245.87 362.631,275.203 328.5,299C 316.614,306.444 304.28,313.111 291.5,319C 290.671,348.428 290.171,377.928 290,407.5C 288.071,426.425 278.237,439.258 260.5,446C 234.409,451.373 216.242,441.873 206,417.5C 205.055,413.886 204.388,410.219 204,406.5C 203.667,390.167 203.333,373.833 203,357.5C 199.797,348.978 193.63,345.145 184.5,346C 176.886,347.947 172.386,352.78 171,360.5C 173.419,386.722 161.753,401.722 136,405.5C 117.601,404.1 106.268,394.433 102,376.5C 101.833,354.826 101.333,333.159 100.5,311.5C 55.0849,287.92 23.2516,252.254 5,204.5C 2.95516,196.751 1.12183,189.085 -0.5,181.5C -0.5,171.5 -0.5,161.5 -0.5,151.5C 5.88961,116.25 24.5563,89.4171 55.5,71C 82.3006,55.9552 110.967,46.2885 141.5,42C 197.485,33.5928 252.818,36.5928 307.5,51C 337.153,59.401 362.653,74.5676 384,96.5C 389.787,103.627 394.787,111.293 399,119.5C 399.903,120.701 401.069,121.535 402.5,122C 434.167,122.333 465.833,122.667 497.5,123C 504.417,124.268 509.083,128.101 511.5,134.5 Z M 183.5,55.5 C 229.418,52.9891 274.085,59.1558 317.5,74C 340.296,82.4801 359.462,95.9801 375,114.5C 378.141,118.613 380.641,123.113 382.5,128C 377.831,153.837 366.665,176.337 349,195.5C 329.937,216.238 307.77,232.738 282.5,245C 277.969,248.571 274.802,253.071 273,258.5C 272.667,307.833 272.333,357.167 272,406.5C 268.491,423.664 257.991,431.164 240.5,429C 229.673,424.851 223.506,417.017 222,405.5C 221.947,387.115 221.281,368.781 220,350.5C 212.746,333.618 199.913,326.118 181.5,328C 165.548,331.619 156.048,341.452 153,357.5C 152.667,363.167 152.333,368.833 152,374.5C 148.352,385.072 141.185,388.906 130.5,386C 125.011,383.532 121.511,379.365 120,373.5C 119.667,334.833 119.333,296.167 119,257.5C 117.939,250.776 114.772,245.276 109.5,241C 71.8913,221.391 43.7247,192.558 25,154.5C 23.2005,150.268 21.7005,145.935 20.5,141.5C 29.4704,115.693 46.1371,96.526 70.5,84C 106.249,66.4797 143.915,56.9797 183.5,55.5 Z M 398.5,139.5 C 430.093,140.492 461.76,140.825 493.5,140.5C 493.5,157.5 493.5,174.5 493.5,191.5C 466.165,191.333 438.831,191.5 411.5,192C 405.588,193.538 400.755,196.705 397,201.5C 370.601,243.901 335.268,276.568 291,299.5C 290.333,287.167 290.333,274.833 291,262.5C 298.086,257.371 305.586,252.871 313.5,249C 343.762,230.072 367.929,205.238 386,174.5C 391.872,163.426 396.039,151.76 398.5,139.5 Z M 19.5,184.5 C 34.8891,206.724 53.5557,225.891 75.5,242C 83.7511,247.042 91.9178,252.208 100,257.5C 101.123,263.228 101.623,269.061 101.5,275C 101.167,280.167 100.833,285.333 100.5,290.5C 64.1096,269.608 38.2763,239.608 23,200.5C 21.1977,195.292 20.031,189.959 19.5,184.5 Z"/></g>
<g><path style="opacity:0.936" fill="#000000" d="M 185.5,71.5 C 222.427,69.9259 258.761,73.7593 294.5,83C 317.899,89.1114 338.399,100.278 356,116.5C 360.823,126.697 357.657,131.864 346.5,132C 329.637,116.398 309.971,105.731 287.5,100C 243.105,88.7972 198.271,86.6305 153,93.5C 145.285,91.7741 142.619,87.1074 145,79.5C 146.167,78.3333 147.333,77.1667 148.5,76C 160.912,73.9618 173.245,72.4618 185.5,71.5 Z"/></g>
<g><path style="opacity:0.918" fill="#000000" d="M 100.5,87.5 C 109.003,88.5079 112.17,93.1745 110,101.5C 108.833,102.667 107.667,103.833 106.5,105C 90.0244,111.161 75.3578,120.161 62.5,132C 52.8334,133.331 49.0001,129.164 51,119.5C 64.7829,104.688 81.2829,94.0215 100.5,87.5 Z"/></g>
<g><path style="opacity:0.931" fill="#000000" d="M 130.5,421.5 C 149.272,420.277 159.938,428.944 162.5,447.5C 159.187,468.329 147.187,476.495 126.5,472C 110.871,463.565 106.371,451.065 113,434.5C 117.049,427.599 122.882,423.266 130.5,421.5 Z M 133.5,439.5 C 141.696,439.529 144.863,443.529 143,451.5C 138.333,456.833 133.667,456.833 129,451.5C 127.309,446.131 128.809,442.131 133.5,439.5 Z"/></g>
</svg>
